<svg xmlns="http://www.w3.org/2000/svg" viewBox="0 0 64 64">
  <defs>
    <linearGradient id="comet-core" x1="0%" y1="0%" x2="100%" y2="100%">
      <stop offset="0%" stop-color="#fdf2f8" />
      <stop offset="50%" stop-color="#fb7185" />
      <stop offset="100%" stop-color="#ef4444" />
    </linearGradient>
    <radialGradient id="comet-glow" cx="50%" cy="50%" r="50%">
      <stop offset="0%" stop-color="rgba(255,255,255,0.9)" />
      <stop offset="50%" stop-color="rgba(250,204,21,0.45)" />
      <stop offset="100%" stop-color="rgba(251,113,133,0)" />
    </radialGradient>
  </defs>
  <g fill="none" fill-rule="evenodd">
    <circle cx="34" cy="30" r="22" fill="url(#comet-glow)" opacity="0.55" />
    <path
      d="M54 12c-3.2 7.6-5.3 12-6.1 13.1-.8 1.1-2.2 2.3-4.3 3.6-2.1 1.3-4.5 2.5-7.1 3.9-2.6 1.4-4.8 3.6-6.7 6.6-1.9 3-3.2 5.1-4 6.3-.8 1.2-2.6 3.5-5.4 6.9 1.4-5.9 2.3-9.5 2.7-10.7.4-1.2 1.3-3 2.8-5.3 1.6-2.3 3.6-4.6 6.2-6.8 2.6-2.2 5.7-4.3 9.3-6.3C45 19.9 49.3 16.9 54 12Z"
      fill="#7dd3fc"
      opacity="0.75"
    />
    <path
      d="M46 8c-2.4 5.9-4 9.4-4.7 10.3-.7.9-1.8 1.9-3.4 3-1.6 1.1-3.5 2.1-5.5 3.3-2 .9-3.7 2.7-5.1 4.9-1.4 2.2-2.5 3.8-3.1 4.7-.6.9-2 2.6-4.2 5.1.9-4.5 1.6-7.3 1.9-8.3.3-.9 1-2.3 2.2-4.1 1.2-1.8 2.8-3.5 4.7-5.1 1.9-1.6 4.3-3.2 7.1-4.7C39.6 14.6 42.8 12.3 46 8Z"
      fill="#bae6fd"
      opacity="0.6"
    />
    <circle cx="34" cy="30" r="11" fill="url(#comet-core)" stroke="#fee2e2" stroke-width="1.4" />
    <path
      d="M35 22c-4.4 0-8 3.6-8 8 0 4.3 3.4 7.7 7.6 8 3.8.3 8.4-3.2 8.4-8 0-4.4-3.6-8-8-8Z"
      fill="rgba(255,255,255,0.65)"
    />
  </g>
</svg>
